<?xml version="1.0" encoding="UTF-8"?>
<svg xmlns="http://www.w3.org/2000/svg" id="Capa_1" data-name="Capa 1" version="1.1" viewBox="0 0 954 290.2">
  <defs>
    <style>
      .cls-1 {
        fill: #fff;
        stroke-width: 0px;
      }
    </style>
  </defs>
  <path class="cls-1" d="M74.6,187.7c-32.6,0-58.6-22.1-58.6-55.9V27.2h31.1v103.5c0,18.3,10.7,29.3,27.5,29.3s27.7-11,27.7-29.3V27.2h30.8v104.6c0,33.7-25.9,55.9-58.6,55.9"></path>
  <polygon class="cls-1" points="199.1 186.3 199.1 27.2 230.1 27.2 230.1 158.6 302.3 158.6 302.3 186.3 199.1 186.3"></polygon>
  <rect class="cls-1" x="358.9" y="27.2" width="31.1" height="159.1"></rect>
  <polygon class="cls-1" points="552.4 186.3 489.4 88.7 489.4 186.3 458.3 186.3 458.3 27.2 486.1 27.2 549.1 124.7 549.1 27.2 580.1 27.2 580.1 186.3 552.4 186.3"></polygon>
  <polygon class="cls-1" points="648.5 186.3 648.5 27.2 753.4 27.2 753.4 54.9 679.6 54.9 679.6 92.3 742.4 92.3 742.4 120 679.6 120 679.6 158.6 753.4 158.6 753.4 186.3 648.5 186.3"></polygon>
  <path class="cls-1" d="M905.6,186.3l-9.4-28.2h-56.5l-9.6,28.2h-32.4l57.9-159.1h24.4l58.1,159.1h-32.4ZM868.5,74.2l-20.1,57.9h39.6l-19.4-57.9Z"></path>
  <path class="cls-1" d="M19.7,226.9v3h-.2c0-.7-.3-1.3-.8-1.8-.5-.5-1.2-.7-1.9-.7h-.8v-.5h3.6ZM24.2,226.9v22.2c0,2.4.4,4.5,1.3,6.4.9,1.8,2.1,3.2,3.6,4.2,1.6,1,3.4,1.5,5.5,1.5s4.1-.5,5.7-1.4c1.6-.9,2.9-2.3,3.8-4,.9-1.7,1.3-3.7,1.3-6v-22.9h2.8v22.8c0,2.7-.6,5-1.7,7-1.1,2-2.7,3.5-4.8,4.6-2.1,1.1-4.6,1.7-7.4,1.7s-5.7-.5-7.9-1.6c-2.2-1.1-3.9-2.6-5.1-4.6-1.2-2-1.8-4.3-1.8-7v-22.8h4.7ZM27.7,226.9v.5h-.8c-.7,0-1.4.2-1.9.7-.5.5-.8,1.1-.8,1.8h-.1v-3h3.6ZM45.6,226.9v3h-.1c0-.7-.3-1.3-.8-1.8-.5-.5-1.2-.7-1.9-.7h-.8v-.5h3.6ZM51.8,226.9v.5h-.8c-.7,0-1.4.2-1.9.7-.5.5-.8,1.1-.8,1.8h-.1v-3h3.6Z"></path>
  <path class="cls-1" d="M116,258.6v3.6h-4.2v-.5h1c.8,0,1.6-.3,2.2-.9.6-.6.9-1.3.9-2.2h.2ZM115.9,226.1l3.9,4.4v31.6c0,0-3.9,0-3.9,0v-29.8c0-1.8-.2-3.9-.5-6.3h.5ZM115.9,226.1l30.3,31.1.5,5.7-30.3-31-.5-5.8ZM119.8,258.6c0,.8.3,1.6.9,2.2.6.6,1.3.9,2.2.9h1v.5h-4.2v-3.6h.2ZM138.6,226.9h4.2v3.6h-.1c0-.9-.3-1.6-.9-2.2s-1.3-.9-2.2-.9h-1v-.5ZM146.6,226.9v29.6c0,1.1,0,2.2.1,3.2,0,1,.2,2.1.4,3.3h-.5l-3.9-4.5v-31.5h3.9ZM150.7,226.9v.5h-.9c-.8,0-1.6.3-2.2.9-.6.6-.9,1.3-1,2.2h-.2v-3.6h4.2Z"></path>
  <path class="cls-1" d="M215.3,230.6h-.2c0-.9-.4-1.6-1-2.2-.6-.6-1.4-.9-2.2-.9h-.7v-.5h4v3.7ZM215.3,258.5v3.7h-4v-.5h.7c.9,0,1.6-.3,2.2-.9.6-.6.9-1.4,1-2.2h.2ZM219.9,262.2h-4.7v-35.3h4.7v35.3ZM219.7,230.6v-3.7h4v.5h-.7c-.9,0-1.6.3-2.2.9-.6.6-1,1.4-1,2.2h-.2ZM219.7,258.5h.2c0,.9.4,1.6,1,2.2.6.6,1.4.9,2.2.9h.7v.5h-4v-3.7Z"></path>
  <path class="cls-1" d="M292.8,230.5h-5.8c-.5-1.1-1.2-1.9-2-2.4-.8-.5-1.6-.7-2.4-.7h-.4v-.5h12.9v.5h-.5c-.6,0-1.2.3-1.7.8-.5.5-.5,1.3-.2,2.3M301.5,263l-16-35.8h5.9l11.8,29.4-1.7,6.5ZM301.5,263l-.4-4.4,13.2-31.6h3.2l-13.6,30.3c0,0-.1.3-.3.8-.2.5-.5,1-.7,1.6-.3.6-.5,1.3-.7,1.9-.2.6-.3,1.1-.3,1.4h-.5ZM312.9,230.5c.4-1,.3-1.8-.2-2.3-.5-.5-1.1-.8-1.7-.8h-.5v-.5h10.3v.5h-.5c-.7,0-1.5.2-2.4.7-.8.5-1.5,1.3-2.1,2.4h-3.1Z"></path>
  <path class="cls-1" d="M383.4,230.6h-.2c0-.9-.3-1.6-1-2.2-.6-.6-1.4-.9-2.3-.9h-.6v-.5c0,0,4,0,4,0v3.7ZM383.4,258.5v3.7h-4v-.5h.7c.9,0,1.6-.3,2.2-.9s1-1.4,1-2.2h.2ZM387.9,262.2h-4.7v-35.3h4.7v35.3ZM401.6,228.7h-13.9v-1.8h13.9v1.8ZM399.4,245.7h-11.6v-1.7h11.6v1.7ZM401.4,260.5l.4,1.8h-14.1v-1.8h13.7ZM404.7,253.3l-2.7,8.9h-8.9l1.8-1.8c1.7,0,3.2-.3,4.4-.9,1.2-.6,2.2-1.4,2.9-2.5.8-1.1,1.4-2.3,2-3.7h.5ZM401.6,226v1.5l-6.2-.6c.7,0,1.5,0,2.3-.2.8-.1,1.6-.2,2.3-.4.7-.1,1.2-.3,1.5-.4M399.4,240.2v3.8h-3.5c.9-.1,1.6-.5,2.2-1.1.6-.6.9-1.3.9-2.2v-.6h.5ZM399.4,245.6v3.8h-.5v-.7c0-.8-.3-1.6-.9-2.2-.6-.6-1.3-.9-2.2-.9h0c0-.1,3.5-.1,3.5-.1ZM401.6,228.5v4.6h-.5v-.8c0-1-.3-1.9-1-2.6-.7-.7-1.6-1.1-2.6-1.1h0c0-.1,4.2-.1,4.2-.1Z"></path>
  <path class="cls-1" d="M469.6,230.6h-.2c0-.9-.4-1.6-1-2.2-.6-.6-1.4-.9-2.2-.9h-.7v-.5h4v3.7ZM469.6,258.5v3.7h-4v-.5h.7c.9,0,1.6-.3,2.2-.9.6-.6,1-1.4,1-2.2h.2ZM474.1,262.2h-4.7v-35.3h4.7v35.3ZM480.4,226.9c1.5,0,2.9.2,4.2.6,1.3.4,2.4,1,3.4,1.8.9.8,1.7,1.8,2.2,3,.5,1.2.8,2.6.8,4.1s-.4,3.1-1.1,4.5c-.7,1.5-1.7,2.7-3,3.6-1.3.9-2.8,1.4-4.5,1.5.7.3,1.5.8,2.2,1.6.7.8,1.4,1.5,1.9,2.3,0,0,.2.4.6,1,.4.6.9,1.4,1.6,2.2.6.9,1.3,1.8,1.9,2.6.7.9,1.2,1.6,1.7,2.2.7.8,1.3,1.5,2,2,.7.6,1.4,1,2.1,1.3.8.3,1.6.5,2.5.5v.5h-3.5c-1.6,0-3-.2-4.3-.6-1.2-.4-2.3-1-3.2-1.7-.9-.7-1.7-1.5-2.3-2.3-.1-.2-.4-.7-.8-1.3-.4-.6-.9-1.4-1.4-2.2-.5-.8-1-1.6-1.5-2.4-.5-.8-.9-1.5-1.3-2.1-.4-.6-.6-1-.7-1.1-.6-.9-1.2-1.7-1.9-2.3-.7-.7-1.5-1-2.3-1v-.5s.3,0,.7,0c.5,0,1,0,1.6,0,.9,0,1.8-.2,2.8-.5,1-.3,1.9-.8,2.7-1.6.8-.8,1.4-1.9,1.8-3.4,0-.3.2-.8.2-1.3,0-.5,0-1,0-1.6,0-2.3-.6-4.1-1.7-5.4-1.1-1.3-2.6-2-4.4-2-.8,0-1.6,0-2.4,0-.8,0-1.6,0-2.2,0h-1s0-.2-.1-.5c0-.3-.2-.7-.4-1.3h6.9ZM474,258.5h.1c0,.9.3,1.6,1,2.2.6.6,1.4.9,2.3.9h.6v.5h-4v-3.7Z"></path>
  <path class="cls-1" d="M566.9,226.2c.6,0,1.2,0,2,.1.7,0,1.5.2,2.2.3.8.1,1.4.2,2,.4.6.1,1,.2,1.3.4l-.2,6h-.5c0-1.6-.6-3-1.8-3.9-1.2-1-2.7-1.5-4.4-1.5s-3.4.5-4.6,1.6c-1.2,1.1-1.7,2.4-1.7,3.9,0,.7.2,1.5.6,2.3.4.8,1.1,1.6,1.9,2.3l9.8,8.2c1.2.9,2,2,2.5,3.2.5,1.2.7,2.4.7,3.7,0,3-1.1,5.3-3,7.1-1.9,1.8-4.5,2.7-7.8,2.7s-2.2-.1-3.4-.3c-1.2-.2-2.3-.5-3.4-.9-1-.4-1.9-1-2.5-1.6-.2-.6-.2-1.4-.2-2.2,0-.9.1-1.8.3-2.8.2-.9.4-1.8.7-2.5h.5c-.2,1.7,0,3.2.7,4.6.7,1.3,1.6,2.4,2.9,3.1s2.7,1.1,4.4,1c2,0,3.6-.7,4.9-1.8,1.3-1.2,1.9-2.7,1.9-4.6s-.2-1.9-.7-2.7c-.4-.8-1.1-1.5-2-2.2l-9.4-8c-1.3-.9-2.2-2.1-2.7-3.3-.5-1.3-.8-2.6-.7-3.8,0-1.5.5-2.9,1.2-4.3.7-1.3,1.8-2.4,3.2-3.2,1.4-.8,3.1-1.2,5.1-1.2M574.4,227.8h-4.5v-1.1h4.5v1.1Z"></path>
  <path class="cls-1" d="M642.7,230.6h-.2c0-.9-.4-1.6-1-2.2-.6-.6-1.4-.9-2.2-.9h-.7v-.5h4v3.7ZM642.7,258.5v3.7h-4v-.5h.7c.9,0,1.6-.3,2.2-.9.6-.6.9-1.4,1-2.2h.2ZM647.2,262.2h-4.7v-35.3h4.7v35.3ZM647,230.6v-3.7h4v.5h-.7c-.9,0-1.6.3-2.2.9-.6.6-1,1.4-1,2.2h-.2ZM647,258.5h.2c0,.9.4,1.6,1,2.2.6.6,1.4.9,2.2.9h.7v.5h-4v-3.7Z"></path>
  <path class="cls-1" d="M717,230.6h-.2c0-.9-.3-1.6-1-2.2-.6-.6-1.4-.9-2.3-.9h-.6v-.5c0,0,4,0,4,0v3.7ZM717,258.5v3.7h-4v-.5h.7c.9,0,1.6-.3,2.2-.9.6-.6,1-1.4,1-2.2h.2ZM721.6,262.2h-4.7v-35.3h4.7v35.3ZM730.5,226.9c3.7,0,7,.7,9.7,2.2,2.8,1.4,4.9,3.5,6.5,6.2,1.5,2.7,2.3,5.8,2.3,9.3s-.8,6.7-2.3,9.3c-1.5,2.6-3.7,4.7-6.5,6.2-2.8,1.5-6,2.2-9.7,2.2h-11.2v-1.7s1.7,0,1.7,0h9.3c2.7,0,5.1-.7,7.1-2,2-1.3,3.6-3.2,4.7-5.6,1.1-2.4,1.7-5.2,1.7-8.4s-.6-6-1.7-8.4c-1.1-2.4-2.7-4.2-4.7-5.6-2-1.3-4.4-2-7.1-2h-11.6v-1.7h11.8Z"></path>
  <path class="cls-1" d="M813.3,258.5c-.2.7-.3,1.2-.1,1.7.2.5.4.8.8,1.1.4.3.8.4,1.2.4h.5v.5h-10.3v-.5h.5c.8,0,1.6-.2,2.4-.7.8-.5,1.5-1.3,2-2.4h3.1ZM824.2,226.1l.4,4.4-12.6,31.6h-3.3l13-30.3c0,0,.2-.3.4-.8.2-.5.5-1,.7-1.6.3-.6.5-1.3.7-1.9.2-.6.3-1.1.3-1.4h.5ZM830.7,250.8h-15.4v-1.7h15.4v1.7ZM824.2,226.1l15.5,35.8h-5.9l-11.3-29.4,1.7-6.5ZM832.4,258.5h5.7c.5,1.1,1.2,2,2,2.4.8.5,1.6.7,2.4.7h.4v.5h-12.9v-.5h.5c.7,0,1.3-.3,1.8-.8.5-.6.6-1.3.2-2.3"></path>
  <path class="cls-1" d="M905.5,230.6h-.2c0-.9-.3-1.6-1-2.2-.6-.6-1.4-.9-2.3-.9h-.6v-.5c0,0,4,0,4,0v3.7ZM905.5,258.5v3.7h-4v-.5h.7c.9,0,1.6-.3,2.2-.9.6-.6,1-1.4,1-2.2h.2ZM910,262.2h-4.7v-35.3h4.7v35.3ZM918.9,226.9c3.7,0,7,.7,9.7,2.2,2.8,1.4,4.9,3.5,6.5,6.2,1.5,2.7,2.3,5.8,2.3,9.3s-.8,6.7-2.3,9.3c-1.5,2.6-3.7,4.7-6.5,6.2-2.8,1.5-6,2.2-9.7,2.2h-11.2v-1.7s1.7,0,1.7,0h9.3c2.7,0,5.1-.7,7.1-2,2-1.3,3.6-3.2,4.7-5.6,1.1-2.4,1.7-5.2,1.7-8.4s-.6-6-1.7-8.4c-1.1-2.4-2.7-4.2-4.7-5.6-2-1.3-4.4-2-7.1-2h-11.6v-1.7h11.8Z"></path>
</svg>
